<svg xmlns="http://www.w3.org/2000/svg" xmlns:xlink="http://www.w3.org/1999/xlink" width="755.84" height="755.84" viewBox="0 0 566.88 566.88"><g data-name="P"><clipPath id="a"><path transform="matrix(1 0 0 -1 0 566.88)" d="M0 0h566.88v566.88H0z" fill-rule="evenodd"/></clipPath><g clip-path="url(#a)"><path d="M0 566.88h566.88V0H0z" fill="#fff" fill-rule="evenodd"/></g></g><g data-name="P"><clipPath id="b"><path transform="matrix(1 0 0 -1 0 566.88)" d="M0 566.88h566.88V0H0" fill-rule="evenodd"/></clipPath><g clip-path="url(#b)"><path d="m58.659 416.81-1.227-266.88L297.36 11.76l230.21 135.02 1.23 266.88-239.93 138.171z" fill="#222a35" fill-rule="evenodd"/></g><clipPath id="c"><path transform="matrix(1 0 0 -1 0 566.88)" d="M0 566.88h566.88V0H0" fill-rule="evenodd"/></clipPath><g clip-path="url(#c)"><path stroke-width="13" stroke-linecap="round" stroke-linejoin="round" fill="none" stroke="#f4b183" d="m58.659 416.81-1.227-266.88L297.36 11.76l230.21 135.02 1.23 266.88-239.93 138.171z"/></g></g><g data-name="P"><clipPath id="d"><path transform="matrix(1 0 0 -1 0 566.88)" d="M0 0h566.88v566.88H0z" fill-rule="evenodd"/></clipPath><g clip-path="url(#d)"><symbol id="e"><path d="M.266.024C.205.027.194.04.193.103v.189c0 .052.028.095.061.095C.262.387.271.38.282.364.301.337.316.328.342.328c.037 0 .063.028.063.066C.405.44.371.473.324.473.274.473.236.447.189.379v.082H0V.437C.042.432.053.42.054.378V.084C.053.042.043.031 0 .024V0h.266v.024z"/></symbol><symbol id="f"><path d="M.239.024c-.032 0-.048.02-.049.06v.592H0V.652C.033.651.05.632.051.594v-.51C.05.046.032.025 0 .024V0h.239v.024z"/></symbol><symbol id="g"><path d="M.239.024C.205.028.192.043.192.081v.38H0V.437C.044.429.052.42.053.378V.084C.052.042.045.034 0 .024V0h.239v.024M.122.691A.078.078 0 0 1 .044.614c0-.045.033-.078.077-.078s.078.033.078.077a.077.077 0 0 1-.077.078z"/></symbol><symbol id="h"><path d="M.315.34v.145H.293C.287.47.281.465.268.465a.118.118 0 0 0-.031.007.23.23 0 0 1-.078.015C.068.487.002.425.002.341c0-.066.041-.112.142-.155C.213.156.24.131.24.099.24.06.21.034.165.034c-.07 0-.116.045-.137.132H0V.001h.025c.011.022.017.028.026.028A.07.07 0 0 0 .074.023.348.348 0 0 1 .182 0c.091 0 .154.062.154.152 0 .071-.038.114-.138.156C.13.337.102.362.102.396c0 .033.028.058.066.058A.108.108 0 0 0 .243.422.174.174 0 0 0 .29.34h.025z"/></symbol><symbol id="i"><path d="M.285.473H.191v.169H.166A.878.878 0 0 0 0 .456V.429h.052V.105C.052.04.095 0 .164 0c.067 0 .107.03.148.112L.287.123C.267.085.251.071.23.071.202.071.191.088.191.128v.301h.094v.044z"/></symbol><symbol id="j"><path d="M.518.024C.481.026.468.041.469.081v.251c0 .086-.053.141-.135.141C.274.473.228.445.191.386v.075H0V.437C.044.43.052.421.053.378V.084C.052.041.044.032 0 .024V0h.241v.024C.205.028.192.044.192.081v.267c0 .003.007.014.017.024.022.022.046.034.069.034C.313.406.33.379.33.323V.081C.329.043.316.027.283.024V0h.235v.024z"/></symbol><symbol id="k"><path d="M.454.604v.053h-.13a.293.293 0 0 1-.112.022C.093.679.009.613.009.518c0-.035.012-.067.036-.095A.197.197 0 0 1 .133.366C.054.339.014.3.014.249.014.208.032.19.096.167.033.159 0 .133 0 .092 0 .034.075 0 .201 0c.167 0 .254.052.254.151 0 .077-.058.12-.164.122L.226.274c-.085.001-.1.006-.1.034 0 .031.028.052.068.052.092 0 .096 0 .129.015.06.026.09.069.09.131 0 .04-.012.07-.04.098h.081M.296.154c.054 0 .08-.016.08-.05C.376.058.321.032.222.032.134.032.088.055.088.099c0 .021.007.032.035.055h.173M.212.648C.259.648.278.61.278.517S.26.388.212.388.146.423.146.517s.018.131.066.131z"/></symbol><use xlink:href="#e" transform="matrix(60.024 0 0 -60.024 187.5 462.38)" fill="#fff"/><use xlink:href="#f" transform="matrix(60.024 0 0 -60.024 213.371 462.38)" fill="#fff"/><use xlink:href="#g" transform="matrix(60.024 0 0 -60.024 230.058 462.38)" fill="#fff"/><use xlink:href="#h" transform="matrix(60.024 0 0 -60.024 247.044 463.22)" fill="#fff"/><use xlink:href="#i" transform="matrix(60.024 0 0 -60.024 270.094 463.1)" fill="#fff"/><use xlink:href="#g" transform="matrix(60.024 0 0 -60.024 289.842 462.38)" fill="#fff"/><use xlink:href="#j" transform="matrix(60.024 0 0 -60.024 306.588 462.38)" fill="#fff"/><use xlink:href="#k" transform="matrix(60.024 0 0 -60.024 340.382 474.745)" fill="#fff"/><use xlink:href="#h" transform="matrix(60.024 0 0 -60.024 370.214 463.22)" fill="#fff"/></g></g><path stroke-width="9.12" stroke-miterlimit="10" fill="none" stroke="#fff" d="M168.24 154.28c0-22.64 18.36-41 41-41h167.84c22.64 0 41 18.36 41 41v164c0 22.64-18.36 41-41 41H209.24c-22.64 0-41-18.36-41-41z" data-name="P"/><g data-name="P"><path d="M195.12 157.92c0-9.81 8.17-17.76 18.24-17.76 10.07 0 18.24 7.95 18.24 17.76 0 9.81-8.17 17.76-18.24 17.76-10.07 0-18.24-7.95-18.24-17.76z" fill="#00b0f0" fill-rule="evenodd"/><path stroke-width=".96" stroke-miterlimit="10" fill="none" stroke="#41719c" d="M195.12 157.92c0-9.81 8.17-17.76 18.24-17.76 10.07 0 18.24 7.95 18.24 17.76 0 9.81-8.17 17.76-18.24 17.76-10.07 0-18.24-7.95-18.24-17.76z"/></g><g data-name="P"><path d="M195.12 207.96c0-9.74 8.17-17.64 18.24-17.64 10.07 0 18.24 7.9 18.24 17.64s-8.17 17.64-18.24 17.64c-10.07 0-18.24-7.9-18.24-17.64z" fill="#00b0f0" fill-rule="evenodd"/><path stroke-width=".96" stroke-miterlimit="10" fill="none" stroke="#41719c" d="M195.12 207.96c0-9.74 8.17-17.64 18.24-17.64 10.07 0 18.24 7.9 18.24 17.64s-8.17 17.64-18.24 17.64c-10.07 0-18.24-7.9-18.24-17.64z"/></g><g data-name="P"><path d="M195.12 258.12c0-9.74 8.17-17.64 18.24-17.64 10.07 0 18.24 7.9 18.24 17.64s-8.17 17.64-18.24 17.64c-10.07 0-18.24-7.9-18.24-17.64z" fill="#00b0f0" fill-rule="evenodd"/><path stroke-width=".96" stroke-miterlimit="10" fill="none" stroke="#41719c" d="M195.12 258.12c0-9.74 8.17-17.64 18.24-17.64 10.07 0 18.24 7.9 18.24 17.64s-8.17 17.64-18.24 17.64c-10.07 0-18.24-7.9-18.24-17.64z"/></g><g data-name="P"><path d="M195.12 308.16c0-9.81 8.17-17.76 18.24-17.76 10.07 0 18.24 7.95 18.24 17.76 0 9.81-8.17 17.76-18.24 17.76-10.07 0-18.24-7.95-18.24-17.76z" fill="#00b0f0" fill-rule="evenodd"/><path stroke-width=".96" stroke-miterlimit="10" fill="none" stroke="#41719c" d="M195.12 308.16c0-9.81 8.17-17.76 18.24-17.76 10.07 0 18.24 7.95 18.24 17.76 0 9.81-8.17 17.76-18.24 17.76-10.07 0-18.24-7.95-18.24-17.76z"/></g><g data-name="P"><path d="M249.12 146.08a5.92 5.92 0 0 1 5.92-5.92h139.6a5.92 5.92 0 0 1 5.92 5.92v23.68a5.92 5.92 0 0 1-5.92 5.92h-139.6a5.92 5.92 0 0 1-5.92-5.92z" fill="#00b0f0" fill-rule="evenodd"/><path stroke-width=".96" stroke-miterlimit="10" fill="none" stroke="#41719c" d="M249.12 146.08a5.92 5.92 0 0 1 5.92-5.92h139.6a5.92 5.92 0 0 1 5.92 5.92v23.68a5.92 5.92 0 0 1-5.92 5.92h-139.6a5.92 5.92 0 0 1-5.92-5.92z"/></g><g data-name="P"><path d="M249.12 196.2c0-3.25 2.63-5.88 5.88-5.88h139.68c3.25 0 5.88 2.63 5.88 5.88v23.52c0 3.25-2.63 5.88-5.88 5.88H255c-3.25 0-5.88-2.63-5.88-5.88z" fill="#00b0f0" fill-rule="evenodd"/><path stroke-width=".96" stroke-miterlimit="10" fill="none" stroke="#41719c" d="M249.12 196.2c0-3.25 2.63-5.88 5.88-5.88h139.68c3.25 0 5.88 2.63 5.88 5.88v23.52c0 3.25-2.63 5.88-5.88 5.88H255c-3.25 0-5.88-2.63-5.88-5.88z"/></g><g data-name="P"><path d="M249.12 246.36c0-3.25 2.63-5.88 5.88-5.88h139.68c3.25 0 5.88 2.63 5.88 5.88v23.52c0 3.25-2.63 5.88-5.88 5.88H255c-3.25 0-5.88-2.63-5.88-5.88z" fill="#00b0f0" fill-rule="evenodd"/><path stroke-width=".96" stroke-miterlimit="10" fill="none" stroke="#41719c" d="M249.12 246.36c0-3.25 2.63-5.88 5.88-5.88h139.68c3.25 0 5.88 2.63 5.88 5.88v23.52c0 3.25-2.63 5.88-5.88 5.88H255c-3.25 0-5.88-2.63-5.88-5.88z"/></g><g data-name="P"><path d="M249.12 296.32a5.92 5.92 0 0 1 5.92-5.92h139.6a5.92 5.92 0 0 1 5.92 5.92V320a5.92 5.92 0 0 1-5.92 5.92h-139.6a5.92 5.92 0 0 1-5.92-5.92z" fill="#00b0f0" fill-rule="evenodd"/><path stroke-width=".96" stroke-miterlimit="10" fill="none" stroke="#41719c" d="M249.12 296.32a5.92 5.92 0 0 1 5.92-5.92h139.6a5.92 5.92 0 0 1 5.92 5.92V320a5.92 5.92 0 0 1-5.92 5.92h-139.6a5.92 5.92 0 0 1-5.92-5.92z"/></g></svg>